<svg xmlns="http://www.w3.org/2000/svg" viewBox="0 0 137.27 137.49"><defs><style>.cls-1{fill:#24ddd8;}</style></defs><title>VNFT LogoMark Green</title><g id="Layer_2" data-name="Layer 2"><g id="Layer_1-2" data-name="Layer 1"><path class="cls-1" d="M131.92,0a37,37,0,0,0-26.36,11V0h-5.34A37,37,0,0,0,73.87,11V0H68.52a37.09,37.09,0,0,0-37,37.05V94c-.57,0-1.13-.06-1.7-.06a20.22,20.22,0,0,0-4.24.44,20,20,0,0,0-7.08,3A9.64,9.64,0,0,0,9.61,91.5a9.12,9.12,0,0,0-2,.21,9.6,9.6,0,0,0,2,19h.26a19.93,19.93,0,0,0,.16,7.69A20.17,20.17,0,0,0,34,133.9a20.67,20.67,0,0,0,4-1.31,19.3,19.3,0,0,0,12.88,4.9h66.92a19.46,19.46,0,0,0,19.44-19.43V0Zm0,118.06a14.12,14.12,0,0,1-14.09,14.08H50.91a14.06,14.06,0,0,1-11.81-6.45,14.72,14.72,0,0,1-6.21,3,15.37,15.37,0,0,1-3.13.34,14.89,14.89,0,0,1-14.53-11.76,14.41,14.41,0,0,1,0-6,13.79,13.79,0,0,1,.43-1.68,4,4,0,0,0-.09-1.08,4.23,4.23,0,0,0-4.15-3.35,4.73,4.73,0,0,0-.9.09,3.92,3.92,0,0,1-.89.1,4.25,4.25,0,0,1-.88-8.41,4.56,4.56,0,0,1,.9-.08,4.24,4.24,0,0,1,4.14,3.34,4.24,4.24,0,0,0,4.15,3.36,4.58,4.58,0,0,0,.9-.09,3.94,3.94,0,0,0,1-.37A16.12,16.12,0,0,1,21.17,102a14.66,14.66,0,0,1,5.49-2.41,15.09,15.09,0,0,1,3.11-.33,14.71,14.71,0,0,1,7.05,1.79v-64a31.7,31.7,0,0,1,31.7-31.7v31.7a31.7,31.7,0,0,1,31.7-31.7v31.7a31.7,31.7,0,0,1,31.7-31.7Z"/><path class="cls-1" d="M121.36,87.37v26.16a8.08,8.08,0,0,1-8.06,8h-2.51v-5.29A5.29,5.29,0,0,0,105.5,111a5.28,5.28,0,0,0-5.28,5.27v5.29H68.53v-5.29A5.29,5.29,0,0,0,63.24,111h0A5.27,5.27,0,0,0,58,116.29v5.29H55.45a8.08,8.08,0,0,1-8.06-8V87.37a8.09,8.09,0,0,1,8.06-8.06H58V84.6a5.28,5.28,0,0,0,5.27,5.28h0a5.3,5.3,0,0,0,5.29-5.28V79.31h31.69V84.6a5.29,5.29,0,0,0,10.57,0V79.31h2.51A8.09,8.09,0,0,1,121.36,87.37Z"/><rect class="cls-1" x="100.22" y="53.65" width="10.57" height="15.09" rx="3.02"/><path class="cls-1" d="M68.52,56.67v9.06a3,3,0,0,1-3,3H61a3,3,0,0,1-3-3V56.67a3,3,0,0,1,3-3H65.5A3,3,0,0,1,68.52,56.67Z"/><path class="cls-1" d="M63,10.31a37.28,37.28,0,0,0-9.11,5.33,30.58,30.58,0,0,0-6.66,7.66,29,29,0,0,0-3.71,9.44c-.08.42-.18.84-.25,1.26s-.09.86-.16,1.3c-.15.84-.2,1.76-.3,2.66-.22,1.8-.43,3.6-.78,5.4-.36-1.8-.57-3.6-.79-5.4-.09-.91-.19-1.78-.22-2.74a16.48,16.48,0,0,1,0-2.81,23.45,23.45,0,0,1,3.44-10.78,24,24,0,0,1,8-8A21.5,21.5,0,0,1,63,10.31Z"/><path class="cls-1" d="M94.68,10.31a38.27,38.27,0,0,0-8.69,5,30.47,30.47,0,0,0-6.55,7.11,31.22,31.22,0,0,0-4,8.81c-.24.79-.35,1.6-.56,2.4s-.25,1.64-.38,2.47c-.22,1.72-.43,3.43-.79,5.15-.35-1.72-.56-3.43-.78-5.15-.05-.87-.11-1.77-.14-2.67s.08-1.79.21-2.67a23.67,23.67,0,0,1,3.76-10.1,23.28,23.28,0,0,1,7.82-7.41A20.63,20.63,0,0,1,94.68,10.31Z"/><path class="cls-1" d="M126.38,10.31a38.27,38.27,0,0,0-8.69,5,30.47,30.47,0,0,0-6.55,7.11,31.79,31.79,0,0,0-4,8.81c-.25.79-.34,1.6-.56,2.4s-.25,1.64-.38,2.47c-.23,1.72-.43,3.43-.78,5.15-.35-1.72-.57-3.43-.79-5.15-.06-.87-.11-1.77-.13-2.67a26.41,26.41,0,0,1,.19-2.67,23.83,23.83,0,0,1,3.78-10.1,23.06,23.06,0,0,1,7.81-7.41A20.69,20.69,0,0,1,126.38,10.31Z"/></g></g></svg>